PathFileType	4	(X/Y/Z)	 s04c0103.trc
DataRate	CameraRate	NumFrames	NumMarkers	Units	OrigDataRate	OrigDataStartFrame	OrigNumFrames
200	200	7	50	mm	200	1001	2000
Frame#	Time	racr			lacr			c7			jug			rlel			rdr			llel			ldr			s2			lic			ric			lasi			rasi			rpsi			lpsi			rgt			lgt			rth1			rth2			rth3			rth4			rlfc			rmfc			rsh1			rsh2			rsh3			rsh4			rlmal			rmmal			rcal			rtoe			rmt5			lth1			lth2			lth4			lth3			llfc			lmfc			lsh1			lsh2			lsh3			lsh4			llmal			lmmal			lcal			ltoe			lmt5			SBIKE			LBIKE			RBIKE			
		X1	Y1	Z1	X2	Y2	Z2	X3	Y3	Z3	X4	Y4	Z4	X5	Y5	Z5	X6	Y6	Z6	X7	Y7	Z7	X8	Y8	Z8	X9	Y9	Z9	X10	Y10	Z10	X11	Y11	Z11	X12	Y12	Z12	X13	Y13	Z13	X14	Y14	Z14	X15	Y15	Z15	X16	Y16	Z16	X17	Y17	Z17	X18	Y18	Z18	X19	Y19	Z19	X20	Y20	Z20	X21	Y21	Z21	X22	Y22	Z22	X23	Y23	Z23	X24	Y24	Z24	X25	Y25	Z25	X26	Y26	Z26	X27	Y27	Z27	X28	Y28	Z28	X29	Y29	Z29	X30	Y30	Z30	X31	Y31	Z31	X32	Y32	Z32	X33	Y33	Z33	X34	Y34	Z34	X35	Y35	Z35	X36	Y36	Z36	X37	Y37	Z37	X38	Y38	Z38	X39	Y39	Z39	X40	Y40	Z40	X41	Y41	Z41	X42	Y42	Z42	X43	Y43	Z43	X44	Y44	Z44	X45	Y45	Z45	X46	Y46	Z46	X47	Y47	Z47	X48	Y48	Z48	X49	Y49	Z49	X50	Y50	Z50	
1001	5.0050	499.170998	1341.438723	-122.662077	508.119167	1334.053515	-393.046349	487.373017	1400.568648	-262.147279	435.736889	1248.410350	-268.208978	470.861117	1069.359413	43.410122	690.820160	915.639086	-72.072974	476.827947	1080.338775	-543.546633	701.346383	922.973233	-458.800408	-67.319761	1159.494991	-283.787942	86.327940	1186.235829	-433.408469	75.455913	1180.700484	-111.360370	131.320276	1145.060815	-386.220730	128.354663	1141.359179	-156.242079	-48.918288	1206.290502	-236.165059	-45.304648	1209.412857	-314.777473	37.084226	1116.895159	-95.413410	67.835728	1086.285641	-454.557156	157.318370	1026.233411	-62.816793	236.609262	987.473133	-58.822700	287.370489	920.103325	-46.319287	258.753266	1011.636961	-76.658389	372.484124	806.951734	-54.786344	374.754526	788.211182	-169.660580	278.209339	727.130580	-46.788274	229.258346	654.532158	-75.304302	152.012434	623.684248	-96.975633	257.412483	634.621840	-94.759988	45.227950	521.585302	-126.099919	83.528126	514.499171	-205.413066	-18.684593	537.774480	-179.453066	195.145749	325.851533	-141.690377	121.291800	352.455255	-98.104697	127.933751	1011.973138	-464.476031	204.824995	971.140459	-461.674281	228.799877	997.648610	-453.810317	252.001867	895.943277	-457.522764	355.816449	769.670488	-434.182887	373.933619	747.153761	-321.687798	352.649706	645.032799	-457.223436	354.999641	560.116512	-438.488404	318.119724	479.891979	-443.040567	379.504659	557.396443	-406.918083	284.467861	335.847263	-447.792301	272.413509	334.185772	-358.365766	202.767460	302.490002	-415.799141	503.031678	322.695692	-394.013541	442.923977	278.479558	-461.648624	-176.517448	934.118149	-279.819782	-3.307829	85.360734	-484.820843	-15.039436	80.274095	-84.260492	
1002	5.0100	499.309426	1343.056512	-121.822531	508.488010	1334.582796	-391.590776	488.154642	1401.471859	-260.308635	435.361987	1249.698920	-266.065261	471.496048	1070.395307	42.909207	690.906715	915.655386	-72.560187	478.969482	1081.791918	-544.000334	702.086085	922.449324	-458.875075	-66.891259	1160.678584	-285.269395	87.579090	1186.678237	-434.389592	76.381569	1181.959354	-112.277951	132.638947	1145.455596	-387.308855	129.220159	1142.511536	-157.439521	-47.576718	1207.125409	-236.818940	-44.251749	1210.191331	-314.389013	38.104621	1118.549526	-96.067129	68.526438	1086.323184	-455.010422	158.528588	1029.052438	-63.665008	238.563974	991.841685	-59.021537	290.454942	925.535506	-46.174199	260.334113	1016.432514	-76.958581	377.439745	814.281807	-55.065448	379.212910	794.765232	-169.989844	283.039704	735.191212	-47.161339	233.540161	663.034067	-75.756598	156.006024	632.922747	-97.463290	261.500734	642.853672	-95.339513	48.454361	531.992904	-126.763253	87.557826	525.001953	-205.994163	-15.743694	548.087776	-180.121010	198.321157	336.722806	-141.940914	124.699017	363.360252	-98.160528	127.266031	1010.351462	-465.319608	203.050722	967.484817	-462.673386	227.718244	993.343707	-454.866420	248.192373	890.991578	-458.579891	348.905224	761.718950	-435.817824	367.652927	739.692809	-323.247277	346.345341	636.880154	-458.858553	349.687883	552.025924	-440.131875	313.660628	471.340574	-444.509070	374.510216	549.412174	-408.298479	282.078790	326.551434	-448.764791	269.393009	325.207233	-359.794089	200.152727	294.021110	-417.033907	500.619496	311.180817	-393.656102	440.325454	267.660545	-461.594641	-176.570723	934.173416	-279.858464	-3.295828	85.375435	-484.829220	-15.011495	80.304170	-84.273544	
1003	5.0150	499.480970	1344.759298	-120.861363	509.924077	1335.923716	-390.580425	489.306691	1402.419652	-258.769515	436.045326	1250.802812	-264.322516	472.095193	1071.587574	42.488222	690.939257	915.748413	-72.756862	481.140672	1083.654377	-544.654613	702.951066	922.074896	-458.931769	-65.632844	1162.486026	-285.919134	88.973462	1187.258910	-435.411078	77.309495	1183.295090	-113.300060	134.072282	1145.933136	-388.375203	130.016001	1144.026972	-158.503118	-46.475348	1208.324127	-237.428862	-43.129871	1211.229143	-314.959775	39.001997	1120.663554	-96.737185	69.092347	1086.174489	-455.447378	159.731744	1032.317350	-64.526283	240.417908	996.724117	-59.565017	293.410607	931.269012	-46.481296	261.873780	1021.523949	-77.474792	382.315486	821.929051	-55.381618	384.838545	803.981995	-170.214515	288.013391	743.417278	-47.683965	237.914767	671.774558	-76.314578	160.161866	642.233799	-98.055043	265.698694	651.510265	-96.038640	52.045552	542.130711	-127.456950	90.117276	534.812594	-207.081769	-12.345561	558.090961	-180.683440	202.249885	347.590431	-142.185478	128.791304	374.640529	-97.860287	126.525395	1008.716863	-466.229486	201.053630	963.796301	-463.783473	226.451396	988.937520	-455.996603	244.079932	886.103085	-459.810318	341.634365	753.955332	-437.507434	360.641720	731.715748	-325.003347	339.318984	628.745017	-460.544018	343.657637	544.028349	-441.709692	308.437756	462.923887	-445.972287	368.641642	542.155360	-410.451404	279.078602	317.619352	-449.676811	266.547629	315.900781	-360.580857	196.985366	285.867118	-418.158865	497.547371	299.871086	-393.336832	437.084641	256.971264	-461.587604	-176.637362	934.193812	-279.967891	-3.276237	85.389968	-484.855091	-14.975102	80.321339	-84.295941	
1004	5.0200	499.639892	1346.516688	-119.919322	511.360691	1337.522189	-389.476284	490.541623	1403.482100	-257.373229	436.621932	1252.091136	-262.736508	472.667735	1072.807100	42.208074	691.172985	916.079416	-72.980969	483.566936	1085.676212	-544.877069	703.939111	921.685460	-458.877859	-64.232865	1163.749104	-286.822761	90.396282	1187.804464	-436.257749	77.978910	1185.006292	-114.277074	135.408260	1146.443955	-389.224220	130.717582	1145.859645	-159.433497	-42.349984	1208.816877	-240.474598	-41.874508	1212.337884	-315.426006	39.775371	1123.169257	-97.424310	69.617033	1085.896592	-455.859811	160.867482	1035.933968	-65.357493	242.310987	1001.887003	-60.332570	296.629431	937.526946	-47.144874	263.286558	1027.310990	-78.037799	387.249295	829.907275	-55.892292	390.505710	811.848267	-171.081226	292.841873	752.077405	-48.317024	242.543428	680.623659	-76.913624	164.542743	651.511140	-98.724343	268.617267	660.240989	-97.267955	55.873403	551.853294	-128.339287	93.779193	544.514826	-207.987760	-8.572253	567.762649	-181.340296	206.859057	358.280884	-142.422890	133.352659	385.017849	-98.166019	125.738435	1007.195586	-467.081830	198.943799	960.172071	-465.202377	225.005445	984.685711	-457.432192	239.530543	881.076601	-460.921913	333.900869	746.506704	-439.245690	353.219147	724.066299	-326.723605	331.779462	620.817881	-462.221768	337.041829	536.208280	-443.383154	302.641139	454.687749	-447.221746	362.440091	534.372750	-412.389578	275.418250	308.888013	-450.462922	262.333703	307.421726	-361.850588	193.127085	278.146493	-419.079500	493.887976	288.844759	-393.132805	433.130747	246.631359	-461.676075	-176.561289	934.196124	-279.855603	-3.241482	85.412080	-484.847451	-14.957548	80.351968	-84.304836	
1005	5.0250	499.898908	1348.258474	-118.887304	512.714334	1339.318473	-388.256652	491.654059	1404.610046	-255.971967	437.377954	1253.340517	-261.168438	473.287699	1073.812674	41.956491	691.601582	916.540393	-73.611769	485.941452	1087.815776	-544.748291	704.876954	921.369886	-458.649827	-63.032417	1165.370383	-287.752689	91.917831	1188.438832	-437.135114	78.497721	1186.950090	-115.306963	136.902261	1146.984364	-390.099273	131.313475	1147.822336	-160.348058	-40.799075	1210.984850	-242.026738	-40.138194	1213.734366	-316.326750	40.466161	1126.114300	-98.146809	70.039995	1085.470310	-456.290787	161.872965	1039.761790	-66.245988	244.020948	1007.472580	-61.231723	299.819292	944.455527	-47.982598	264.864383	1034.240483	-77.891675	392.437338	838.237403	-56.714622	395.148202	819.687762	-171.703172	297.930469	760.780771	-49.088649	247.252038	689.420993	-77.758128	169.263239	660.730288	-99.386961	274.151432	669.274485	-97.651233	60.359492	561.379374	-129.093025	98.017811	554.088257	-208.833422	-4.334598	576.990205	-181.979694	212.081429	368.697654	-142.596258	138.607517	395.346663	-98.281374	124.559463	1005.720154	-468.540469	196.472020	956.643133	-466.405229	223.188144	980.350565	-458.616338	234.811130	876.391954	-462.004972	325.832165	739.473017	-440.935721	345.413962	716.148097	-328.715758	323.849493	613.015950	-463.837722	329.971662	528.631503	-444.849113	296.279156	446.709339	-448.442006	355.573203	526.876589	-413.979784	271.062880	300.412701	-451.094417	257.914953	299.089151	-362.834758	188.691006	270.615531	-419.693306	489.511266	278.106214	-393.014377	428.466276	236.639782	-461.675877	-176.486311	934.286653	-280.042057	-3.206771	85.470678	-484.862152	-14.948680	80.391148	-84.320752	
1006	5.0300	500.230593	1349.848583	-117.894397	513.949047	1341.304268	-386.929779	492.693910	1405.863805	-254.766745	438.128854	1254.697972	-259.959341	473.930808	1074.887604	42.024451	692.020139	917.034175	-73.750683	488.238954	1090.090771	-544.632641	705.891750	921.137416	-458.391079	-61.892601	1167.078089	-288.727148	93.638779	1189.277776	-438.094073	78.839965	1188.986731	-116.291959	138.277021	1147.424261	-390.558401	131.856872	1150.035542	-161.114042	-39.653913	1213.356352	-243.671216	-38.223497	1215.481765	-317.839752	41.152296	1129.561001	-98.487409	70.272839	1085.121108	-456.750600	162.774042	1043.723136	-67.363356	245.678020	1013.464771	-62.190221	302.923437	951.769667	-48.962062	265.962369	1040.627754	-78.761010	397.946035	846.916413	-57.678004	400.291946	828.085482	-172.609809	303.171901	769.662824	-50.000118	252.294498	698.431469	-78.498857	174.264619	669.833238	-100.135909	279.108666	678.138942	-98.483623	65.297071	570.652058	-129.670752	102.711575	563.266163	-209.586962	0.307846	585.951303	-182.558752	217.879454	378.855279	-142.780065	144.499284	405.345602	-98.371299	123.190021	1004.244678	-469.620631	193.657648	953.082191	-467.487446	221.167072	976.033114	-459.924966	229.813629	871.870697	-463.212731	317.402296	732.559255	-442.667046	337.527646	709.252366	-330.045118	315.502426	605.505750	-465.286729	322.989031	521.778886	-446.753895	289.492556	439.006945	-449.555468	348.112866	519.585971	-415.186912	266.118884	292.326590	-451.654753	252.873676	291.260630	-363.592936	183.669434	263.711044	-420.194828	484.589666	267.769271	-393.004424	423.181404	226.972938	-461.745095	-176.441170	934.366009	-280.555734	-3.189412	85.495089	-484.850103	-14.938998	80.388314	-84.324112	
1007	5.0350	500.523891	1351.312100	-116.896188	515.100974	1343.381164	-385.635542	493.623377	1407.468236	-253.984629	438.728814	1256.430655	-259.434522	474.562521	1075.997742	42.217205	692.521272	917.571457	-73.852036	490.652697	1092.483946	-544.271081	706.813724	920.875124	-458.253448	-60.627802	1168.825274	-289.696651	95.359160	1190.127034	-438.790095	78.991702	1191.171927	-117.436991	139.859676	1148.003596	-391.263317	132.247089	1152.392780	-161.982035	-38.915930	1215.626979	-245.190357	-35.242992	1218.508025	-323.973629	41.750037	1133.088278	-98.983976	70.404400	1084.862964	-457.211262	163.632132	1047.781225	-68.564864	247.332414	1019.658017	-63.076086	306.028813	959.418694	-49.916783	266.926222	1047.298381	-79.819328	403.428269	856.075264	-58.698017	405.458860	836.574414	-173.667564	308.451542	778.747926	-50.929734	257.943153	707.571107	-79.175298	179.471516	678.932915	-100.908202	283.450060	686.924002	-99.090177	70.774926	579.490862	-130.267264	108.932314	572.333852	-210.299771	5.360517	594.365588	-183.276529	224.466254	388.862999	-142.945422	151.067511	415.153883	-98.439066	121.615353	1002.746149	-470.528052	190.651910	949.725634	-468.776126	218.800162	971.919435	-461.369709	224.544848	867.503508	-464.487645	308.715347	725.852887	-444.331155	328.331224	702.754848	-331.913283	307.035031	598.286846	-466.726464	315.185098	514.719833	-447.880092	282.336482	431.725657	-450.520484	340.528031	512.940624	-416.553992	260.518847	284.839573	-452.113421	247.341758	283.983631	-364.129782	178.106338	257.261429	-420.523853	479.126553	257.630424	-393.021627	417.222946	217.614024	-461.815677	-176.543315	934.404765	-280.309892	-3.182030	85.507803	-484.837550	-14.916441	80.403709	-84.307284	
